<?xml version="1.0" encoding="UTF-8"?>
<svg width="128px" height="128px" viewBox="0 0 128 128" version="1.1" xmlns="http://www.w3.org/2000/svg" xmlns:xlink="http://www.w3.org/1999/xlink">
    <title>octagon/octagon</title>
    <g id="Page-1" stroke="none" stroke-width="1" fill="none" fill-rule="evenodd">
        <g id="Masks" transform="translate(-1024.000000, -568.000000)" fill="#000000" fill-rule="nonzero">
            <path d="M1089.38575,568.492119 L1064.97685,572.796066 C1056.51863,574.287479 1048.9993,579.077822 1044.07302,586.113276 L1029.85667,606.416323 C1024.93039,613.451776 1023.00071,622.156032 1024.49212,630.614253 L1028.79607,655.023151 C1030.28748,663.481372 1035.07782,671.000705 1042.11328,675.926982 L1062.41632,690.143329 C1069.45178,695.069607 1078.15603,696.999294 1086.61425,695.507881 L1111.02315,691.203934 C1119.48137,689.712521 1127.0007,684.922178 1131.92698,677.886724 L1146.14333,657.583677 C1151.06961,650.548224 1152.99929,641.843968 1151.50788,633.385747 L1147.20393,608.976849 C1145.71252,600.518628 1140.92218,592.999295 1133.88672,588.073018 L1113.58368,573.856671 C1106.54822,568.930393 1097.84397,567.000706 1089.38575,568.492119 Z" id="octagon/octagon"></path>
        </g>
    </g>
</svg>