<?xml version="1.0" encoding="UTF-8"?>
<svg width="128px" height="128px" viewBox="0 0 128 128" version="1.1" xmlns="http://www.w3.org/2000/svg" xmlns:xlink="http://www.w3.org/1999/xlink">
    <title>squircle/squircle</title>
    <g id="Page-1" stroke="none" stroke-width="1" fill="none" fill-rule="evenodd">
        <g id="Masks" transform="translate(-256.000000, -568.000000)" fill="#000000">
            <path d="M322.199965,568.129914 C352.259361,568.256554 366.669802,577.770386 370.014346,580.941664 C379.138704,589.104461 384.585113,606.655231 383.949891,631.999667 C384.585059,657.344942 379.138659,674.895579 370.014346,683.058336 C366.703248,686.197901 352.546463,695.553804 323.097056,695.863486 L322.199965,695.870086 L321.836517,695.891449 L321.836517,695.891449 L321.216336,695.92102 L321.216336,695.92102 L320.800197,695.937515 L320.800197,695.937515 L320.316613,695.953867 L320.316613,695.953867 L319.768024,695.969113 L319.768024,695.969113 L319.156869,695.98229 C319.049932,695.98426 318.940489,695.986104 318.828592,695.987802 L318.128164,695.99607 C308.285749,696.079643 283.00705,694.939608 269.306625,681.916465 C259.685694,671.979796 256.465023,657.138217 256.093613,639.083289 L256.046792,636.506979 L256.046792,636.506979 L256.032423,635.606588 L256.032423,635.606588 L256.019855,634.686865 C256.01795,634.532016 256.01615,634.376398 256.014468,634.22003 L256.005933,633.272969 C256.003644,632.95438 256.00195,632.632938 256,632.308791 L256,632.30841 L256,631.69159 L256.0053,630.727297 L256.0053,630.727297 L256.014085,629.780148 L256.014085,629.780148 L256.025659,628.851026 L256.025659,628.851026 L256.039327,627.940813 L256.039327,627.940813 L256.093613,624.916711 L256.093613,624.916711 C256.465023,606.861783 259.685694,592.020204 269.306625,582.083535 C282.768872,569.286796 307.410322,567.963587 317.600987,568 L318.355949,568.006107 L318.355949,568.006107 L319.051314,568.015821 L319.051314,568.015821 L319.68449,568.028855 L319.68449,568.028855 L320.252883,568.044187 L320.252883,568.044187 L320.753901,568.060793 L320.753901,568.060793 L321.184952,568.077651 L321.184952,568.077651 L321.826783,568.108031 L321.826783,568.108031 L322.199965,568.129914 L322.199965,568.129914 Z" id="squircle/squircle"></path>
        </g>
    </g>
</svg>