<?xml version="1.0" encoding="UTF-8"?>
<svg width="128px" height="128px" viewBox="0 0 128 128" version="1.1" xmlns="http://www.w3.org/2000/svg" xmlns:xlink="http://www.w3.org/1999/xlink">
    <title>pentagon/pentagon</title>
    <g id="Page-1" stroke="none" stroke-width="1" fill="none" fill-rule="evenodd">
        <g id="Masks" transform="translate(-1280.000000, -568.000000)" fill="#000000" fill-rule="nonzero">
            <path d="M1336.11134,570.48993 L1318.09085,577.869732 C1317.53184,578.098661 1316.97924,578.34272 1316.43368,578.601635 L1298.84704,586.948049 C1286.49016,592.812476 1279.04103,605.611308 1280.09968,619.159095 L1281.60638,638.440676 C1281.65312,639.038811 1281.71635,639.635566 1281.79599,640.230271 L1284.36349,659.401252 C1286.16748,672.871328 1296.13636,683.85413 1309.45235,687.041864 L1328.40402,691.578734 C1328.99193,691.719473 1329.5836,691.844229 1330.17838,691.952861 L1349.35182,695.454766 C1362.82363,697.915303 1376.43387,691.904216 1383.60495,680.326557 L1393.81103,663.848916 C1394.12763,663.337762 1394.43008,662.81811 1394.71803,662.290544 L1404.00037,645.283859 C1410.52241,633.334479 1408.96512,618.636621 1400.08111,608.293501 L1387.43714,593.572888 C1387.04491,593.116239 1386.64016,592.67032 1386.22334,592.235634 L1372.7867,578.22302 C1363.34574,568.37736 1348.77304,565.304671 1336.11134,570.48993 Z" id="pentagon/pentagon"></path>
        </g>
    </g>
</svg>