<?xml version="1.0" encoding="UTF-8"?>
<svg width="36px" height="66px" viewBox="0 0 36 66" version="1.1" xmlns="http://www.w3.org/2000/svg" xmlns:xlink="http://www.w3.org/1999/xlink">
    <!-- Generator: sketchtool 57.1 (101010) - https://sketch.com -->
    <title>406985B2-C415-4624-8AF6-41CD6A56ECA9@2x</title>
    <desc>Created with sketchtool.</desc>
    <g id="Xabber-Server" stroke="none" stroke-width="1" fill="none" fill-rule="evenodd" opacity="0.5">
        <g id="Login/Xabber-for-Web" transform="translate(-502.000000, -592.000000)" fill="#FFFFFF" fill-rule="nonzero">
            <g id="Xabber-for-Android" transform="translate(432.000000, 576.000000)">
                <g id="Android-phone" transform="translate(70.000000, 16.000000)">
                    <path d="M30.7313995,0 L5.08549991,0 C2.48779996,0 0.381499994,2.10629996 0.381499994,4.70399992 L0.381499994,60.514299 C0.381499994,63.1126989 2.48709996,65.2182989 5.08549991,65.2182989 L30.7313995,65.2182989 C33.3304994,65.2182989 35.4367994,63.1126989 35.4367994,60.514299 L35.4367994,4.70399992 C35.4360994,2.10629996 33.3304994,0 30.7313995,0 Z M14.7615997,2.78109995 L21.0552996,2.78109995 C21.2813996,2.78109995 21.4654996,2.96519995 21.4654996,3.19199995 C21.4654996,3.41809994 21.2813996,3.60219994 21.0552996,3.60219994 L14.7615997,3.60219994 C14.5347998,3.60219994 14.3513998,3.41809994 14.3513998,3.19199995 C14.3513998,2.96519995 14.5354998,2.78109995 14.7615997,2.78109995 Z M8.48819986,1.79409997 C8.85079985,1.79409997 9.14479984,2.08809996 9.14479984,2.45069996 C9.14479984,2.81329995 8.85149985,3.10729995 8.48819986,3.10729995 C8.12489986,3.10729995 7.83159987,2.81329995 7.83159987,2.45069996 C7.83159987,2.08809996 8.12559986,1.79409997 8.48819986,1.79409997 Z M5.51319991,1.40069998 C6.0934999,1.40069998 6.56319989,1.87109997 6.56319989,2.45069996 C6.56319989,3.03029995 6.0934999,3.50069994 5.51319991,3.50069994 C4.93289992,3.50069994 4.46319992,3.03029995 4.46319992,2.45069996 C4.46319992,1.87109997 4.93289992,1.40069998 5.51319991,1.40069998 Z M19.5509997,62.8305989 L16.2672997,62.8305989 C15.2256997,62.8305989 14.3821998,61.9870989 14.3821998,60.946899 C14.3821998,59.905999 15.2256997,59.062499 16.2672997,59.062499 L19.5509997,59.062499 C20.5925996,59.062499 21.4360996,59.905999 21.4360996,60.946899 C21.4360996,61.9870989 20.5925996,62.8305989 19.5509997,62.8305989 Z M33.4438994,57.573599 L2.37369996,57.573599 L2.37369996,7.64399987 L33.4438994,7.64399987 L33.4438994,57.573599 Z" id="Shape"></path>
                    <path d="M23.8262497,30.0475238 L23.8262497,38.6536017 C23.8262497,39.2444985 23.3732922,39.7330543 22.7963946,39.7955689 L22.6709966,39.8023259 L21.4346577,39.8023259 L21.4346577,42.7463474 C21.4346577,43.3937052 20.9380665,43.9291102 20.3042816,43.9935071 L20.1758019,44 L20.122622,44 C19.4746485,44 18.9344013,43.5058221 18.8694016,42.8743638 L18.8628472,42.7463474 L18.8628472,39.8023259 L17.1362755,39.8023259 L17.1362755,42.7463474 C17.1362755,43.3937052 16.6389133,43.9291102 16.0049977,43.9935071 L15.8765007,44 L15.8224435,44 C15.17447,44 14.6358017,43.5058221 14.5709993,42.8743638 L14.564465,42.7463474 L14.564465,39.8023259 L13.3290034,39.8023259 C12.735221,39.8023259 12.2427144,39.3531631 12.1796859,38.778538 L12.172873,38.6536017 L12.172873,30.0475238 L23.8262497,30.0475238 Z M10.3120357,29.8475613 C10.9608708,29.8475613 11.4987852,30.3433103 11.5642473,30.9719849 L11.5709332,31.0993847 L11.5709332,36.5498383 C11.5709332,37.1954812 11.074342,37.7315829 10.44128,37.7960736 L10.3129547,37.8025763 L10.2579785,37.8025763 C9.60832094,37.8025763 9.07112614,37.308435 9.00651451,36.6777005 L9,36.5498383 L9,31.0994262 C9,30.4546018 9.4965912,29.9185512 10.1296532,29.8540638 L10.2579785,29.8475613 L10.3120357,29.8475613 Z M25.7411024,29.8475613 C26.4340705,29.8475613 27,30.4116135 27,31.0993847 L27,31.0993847 L27,36.5498383 C27,37.2385241 26.4358668,37.8025763 25.7420215,37.8025763 L25.7420215,37.8025763 L25.6888416,37.8025763 C24.9967926,37.8025763 24.4290668,37.2403533 24.4290668,36.5498383 L24.4290668,36.5498383 L24.4290668,31.0994262 C24.4290668,30.4116135 24.9958735,29.8475613 25.6888416,29.8475613 L25.6888416,29.8475613 Z M21.8221233,23.0340785 C21.902471,23.0856627 21.9352704,23.1845354 21.9074666,23.2710807 L21.8834076,23.3210517 L20.9020649,24.8284612 C22.6718739,25.6920414 23.8667299,27.3196363 23.8667299,29.1866457 L23.8623383,29.3575856 L23.8623383,29.3575856 L23.8505211,29.5264988 L12.1512334,29.5264988 C12.1413327,29.4144201 12.1341056,29.3014267 12.1341056,29.1866457 C12.1341056,27.3943167 13.2344764,25.8226321 14.889133,24.9357245 L15.0988124,24.8284612 L14.1165924,23.3210517 C14.0535118,23.225976 14.0814594,23.095938 14.1778767,23.0340785 C14.2582245,22.9817667 14.3629992,22.9911205 14.4316653,23.0522519 L14.4680477,23.095065 L15.4836044,24.6545229 C16.2486348,24.3433547 17.0993044,24.1685019 18.0004386,24.1685019 C18.7881634,24.1685019 19.5392983,24.3023736 20.2260811,24.5442999 L20.5163956,24.6545229 L21.5337486,23.095065 C21.595952,22.9973286 21.726625,22.9713044 21.8221233,23.0340785 Z M15.2880544,26.409412 C14.9771629,26.409412 14.7248403,26.6578478 14.7248403,26.9681014 C14.7248403,27.2783551 14.9771629,27.5276638 15.2880544,27.5276638 C15.5989459,27.5276638 15.8512685,27.2783966 15.8512685,26.9681014 C15.8512685,26.6578062 15.6007422,26.409412 15.2880544,26.409412 Z M20.7119456,26.409412 C20.4010541,26.409412 20.1487315,26.6578478 20.1487315,26.9681014 C20.1487315,27.2783551 20.4010541,27.5276638 20.7119456,27.5276638 C21.0237144,27.5276638 21.2742407,27.2783551 21.2742407,26.9681014 C21.2742407,26.6578062 21.0237144,26.409412 20.7119456,26.409412 Z" id="Android-logo"></path>
                </g>
            </g>
        </g>
    </g>
</svg>