<?xml version="1.0" encoding="UTF-8"?>
<svg width="33px" height="66px" viewBox="0 0 33 66" version="1.1" xmlns="http://www.w3.org/2000/svg" xmlns:xlink="http://www.w3.org/1999/xlink">
    <!-- Generator: sketchtool 57.1 (101010) - https://sketch.com -->
    <title>982500D7-465A-4D5C-B824-3CECC8828421@2x</title>
    <desc>Created with sketchtool.</desc>
    <g id="Xabber-Server" stroke="none" stroke-width="1" fill="none" fill-rule="evenodd" opacity="0.5">
        <g id="Login/Xabber-for-Web" transform="translate(-744.000000, -592.000000)" fill="#FFFFFF" fill-rule="nonzero">
            <g id="Xabber-for-iOS" transform="translate(672.000000, 576.000000)">
                <g id="iPhone" transform="translate(72.000000, 16.000000)">
                    <path d="M26.6888325,65.34 C26.6888325,65.34 32.619675,65.34 32.619675,59.4002475 L32.619675,5.9397525 C32.619675,-4.26325641e-14 26.6888325,-4.26325641e-14 26.6888325,-4.26325641e-14 L5.9308425,-4.26325641e-14 C5.9308425,-4.26325641e-14 -4.26325641e-14,-4.26325641e-14 -4.26325641e-14,5.9397525 L-4.26325641e-14,59.4002475 C-4.26325641e-14,65.34 5.9308425,65.34 5.9308425,65.34 L26.6888325,65.34 Z M16.3098375,62.866815 C14.672955,62.866815 13.3444575,61.538235 13.3444575,59.901435 C13.3444575,58.26447 14.672955,56.936055 16.3098375,56.936055 C17.9468025,56.936055 19.2752175,58.2645525 19.2752175,59.901435 C19.2752175,61.5383175 17.9468025,62.866815 16.3098375,62.866815 Z M11.861685,3.62076 C11.861685,3.2530575 12.0366675,2.96538 12.256035,2.96538 L20.363475,2.96538 C20.579955,2.96538 20.7579075,3.2589975 20.7579075,3.62076 L20.7579075,3.7957425 C20.7579075,4.163445 20.579955,4.4511225 20.363475,4.4511225 L12.256035,4.4511225 C12.039555,4.4511225 11.861685,4.157505 11.861685,3.7957425 L11.861685,3.62076 Z M2.9654625,7.4135325 L29.6542125,7.4135325 L29.6542125,54.86019 L2.9654625,54.86019 L2.9654625,7.4135325 Z" id="Shape"></path>
                    <path d="M20.5066823,25.5051766 C20.6140121,25.5051766 20.7208925,25.5102225 20.8244349,25.520252 C21.5379982,25.5500291 23.3103518,25.7975275 24.4667146,27.4397509 C24.4911078,27.4743869 24.5000947,27.517246 24.4914929,27.558423 C24.4828911,27.5996624 24.4575351,27.6357312 24.421138,27.658469 L24.421138,27.658469 L24.405475,27.6679378 C24.0694918,27.8696493 22.3941972,28.9825513 22.4157016,31.0841387 C22.4388751,33.6708803 24.6433723,34.6199462 24.8946857,34.7196806 C24.8968041,34.7205527 24.9043788,34.7236052 24.9064329,34.7245396 C24.9809604,34.7577429 25.0176785,34.840097 24.9916805,34.9155364 L24.9916805,34.9155364 L24.98616,34.9324184 C24.8496226,35.3568972 24.4449534,36.4676811 23.6382469,37.6117305 C22.8651772,38.707439 21.9889502,39.9494787 20.5618236,39.9752688 C19.8947357,39.9874164 19.4432702,39.7970426 19.0049641,39.6130229 C18.5602388,39.4262621 18.1003641,39.233085 17.3797396,39.233085 C16.6222687,39.233085 16.1393489,39.4327408 15.672413,39.6258556 C15.2565101,39.7977278 14.8263565,39.9755803 14.2310999,39.9986295 C14.2065784,39.9995639 14.1826346,40 14.158755,40 C12.8917886,40 11.9667753,38.8489735 11.0531242,37.5666912 C9.22274062,35.0018774 8.17049795,30.7718534 9.82570031,27.9844592 C10.69615,26.5152916 12.2750275,25.587593 13.945957,25.563734 L13.945957,25.563734 L13.9966048,25.5632356 C14.7152393,25.5632356 15.3940745,25.8246259 15.9929901,26.0553046 C16.4408608,26.2277374 16.8276203,26.376685 17.1256659,26.376685 C17.3909091,26.376685 17.7754861,26.229544 18.2207249,26.0591669 C18.8657307,25.8123537 19.6685857,25.5051766 20.5066823,25.5051766 Z M20.8259114,21.0001197 C20.9089764,20.9969426 20.9827335,21.0573689 20.9919772,21.1387263 C21.109321,22.1769364 20.7214061,23.335999 19.9542421,24.2391533 C19.2253368,25.094465 18.1580089,25.6256553 17.1686106,25.6256553 C17.0991544,25.625593 17.0294414,25.6229766 16.9611406,25.6178061 C16.8855861,25.6121373 16.8244749,25.5558848 16.8145251,25.4829995 C16.6558413,24.3180812 17.2581591,23.1623825 17.8747276,22.469225 C18.6002307,21.6445625 19.8140458,21.0401131 20.8259114,21.0001197 Z" id="Apple-logo"></path>
                </g>
            </g>
        </g>
    </g>
</svg>